PathFileType	4	(X/Y/Z)	Patient4_TMGait_0pt6_02_left_14.trc.trc
DataRate	CameraRate	NumFrames	NumMarkers	Units	OrigDataRate	OrigDataStartFrame	OrigNumFrames
82.840236686391	82.840236686391	4	33	mm	82.840236686391	124	       141
Frame#	Time	Sacral			L.Shoulder			Chest			R.Shoulder			Neck			R.ASIS			L.ASIS			R.Thigh.Superior			R.Thigh.Lateral			R.Thigh.Inferior			R.Patella			L.Thigh.Superior			L.Thigh.Lateral			L.Thigh.Inferior			L.Patella			L.Shank.Superior			L.Shank.Lateral			L.Shank.Inferior			R.Shank.Superior			R.Shank.Lateral			R.Shank.Inferior			R.Heel			R.Midfoot.Superior			R.Midfoot.Lateral			R.Toe			L.Heel			L.Midfoot.Lateral			L.Midfoot.Superior			L.Toe			L.Elbow			L.Wrist			R.Elbow			R.Wrist			
		X1	Y1	Z1	X2	Y2	Z2	X3	Y3	Z3	X4	Y4	Z4	X5	Y5	Z5	X6	Y6	Z6	X7	Y7	Z7	X8	Y8	Z8	X9	Y9	Z9	X10	Y10	Z10	X11	Y11	Z11	X12	Y12	Z12	X13	Y13	Z13	X14	Y14	Z14	X15	Y15	Z15	X16	Y16	Z16	X17	Y17	Z17	X18	Y18	Z18	X19	Y19	Z19	X20	Y20	Z20	X21	Y21	Z21	X22	Y22	Z22	X23	Y23	Z23	X24	Y24	Z24	X25	Y25	Z25	X26	Y26	Z26	X27	Y27	Z27	X28	Y28	Z28	X29	Y29	Z29	X30	Y30	Z30	X31	Y31	Z31	X32	Y32	Z32	X33	Y33	Z33	

124	18.694785714286	771.138856479944	999.744251820197	515.766452152016	922.833934389089	1424.646981173890	317.239202579913	1045.180366849516	1354.023891647934	462.714385405231	986.179684200981	1431.612243936624	643.828040155771	938.659513803979	1485.457989691158	467.495306348274	1005.708420031738	932.494027124260	612.527718775854	969.034853067652	951.954578335919	339.617650931225	1004.454652390348	718.747670111885	583.331285903972	903.043997102343	624.475106824176	648.243939397250	959.035515261865	559.372777251402	564.864972821265	938.317029431117	473.119680441035	568.607387512178	1046.021616388237	765.088325378319	370.961144333951	989.488092167335	635.462231121737	301.069370073932	1093.630915370294	577.626784172359	361.051865586496	1117.189135332670	511.858010697006	360.841381934012	1101.872256555635	439.020645387855	352.121353329270	1034.670967454242	307.358566849576	308.453082665202	1123.917869676383	210.965196101978	364.008789949545	897.935089547004	389.502126200302	577.236735899031	813.777284683670	297.208447872560	641.092998390057	836.540642060633	198.174834828547	575.947583205975	682.745623976987	42.925363847777	546.703595480504	853.266019416282	95.650255630890	583.699608997699	764.458325166806	36.233839084052	622.223898627416	972.953281731784	42.591537601607	615.711172792636	1039.867572528561	38.567981178038	410.581551588509	1111.086576028092	39.510367585514	328.120263764653	1186.419650837471	111.109354902963	346.870092186719	1317.243416598554	74.101459044231	316.835121887540	790.208420272647	1091.007796155605	231.860783148972	744.845101225344	836.123031618171	250.963150423718	1149.916340281462	1138.472064098970	755.409228189717	1369.050166052634	1222.040452165079	664.115465994751	
125	18.706857142857	772.895416539441	998.537893888692	513.379388923817	923.155039685636	1423.558893658523	315.154955660841	1045.768855243723	1353.514409581725	460.663059478724	986.296604991479	1430.696896362418	641.834480210290	938.742173300377	1484.437638190972	465.400875963850	1007.841258535061	931.172694297085	610.678073764371	971.553155929122	950.751238273477	337.872498046610	1005.634631617802	717.212429502049	581.850194628133	903.220634278953	623.495509023547	646.559006283029	959.106707765185	557.735629350417	563.613412180539	937.468201569156	471.043113371661	567.185318313179	1048.474535382495	763.215075323071	368.683547969589	989.427572527507	633.360517939869	300.756236171578	1094.177801086024	575.616657499493	359.928552315810	1116.305048592174	509.077551344478	360.836520249182	1100.756688888619	436.016070653652	352.311577858415	1032.111167625744	305.009422381831	309.021364579197	1119.756938152058	207.767697708327	365.194155741144	895.691842535883	388.165345794110	576.048382922274	810.168468957944	297.337483721883	640.399862146957	831.220236230226	197.751253907721	575.564619753196	675.539034916068	43.658567231437	546.941618763553	846.380463631319	95.686660580670	583.840515865597	757.321332648034	36.453940214354	622.282207027955	965.866296472280	41.932706978491	615.853633109777	1032.141290797262	38.187281571252	412.143245414044	1103.068630649649	38.007179591377	329.252632951939	1180.719583381705	106.875562810128	348.744351959828	1310.599415781106	66.018640705006	317.754056537835	789.165896041973	1090.774041104332	229.937943133360	742.230464973776	836.105188923844	249.506833793899	1150.622749498676	1137.559643083254	753.396944138318	1366.755052207858	1226.933457129311	661.289964929859	
126	18.718928571429	774.630356194508	997.566352943539	510.988005772660	923.560301577722	1422.668555667486	313.042360486213	1046.466814263353	1353.152809238214	458.551062190883	986.607339240114	1429.926510372060	639.830465752941	938.986356481486	1483.626125167627	463.287175312843	1009.916642356396	929.971981645939	608.671833331472	973.925062349671	949.837441239427	335.993332958445	1006.889201076297	715.861807923980	580.254957798825	903.588779658669	622.660595023273	644.770821391493	959.470362548973	556.255123227671	562.280151978403	937.021618663433	468.992964766718	565.780506902048	1050.874966578468	761.797674788867	366.488798448657	989.919020920734	631.921931663137	300.096660028616	1095.010591521001	574.169741195283	358.853725548235	1115.778815146887	506.855825602975	360.729705316641	1099.977324025336	433.520702135176	352.331859040080	1030.032836319485	303.265958257821	308.947805807026	1115.659634610795	205.047133270465	366.066950345292	893.713723891583	386.958043228223	574.865991331068	806.737787356901	297.703912231997	639.694873072851	826.061011810175	197.546195686440	575.244679022590	668.378192677523	44.812418740779	547.252237436795	839.653222799707	95.824303892622	584.084171024226	750.246722247952	36.866500035776	622.392806429721	958.830381325698	41.234828514028	616.007124088745	1024.341802864382	37.977124730770	413.066703354902	1095.155955478778	36.920749365704	329.930615577479	1174.797301022795	103.356478133790	350.323363250260	1303.889889486029	59.142295192273	318.705654492178	788.871486587722	1090.373443140571	227.939268062708	740.872577512579	835.812677370429	247.658801064854	1150.724819929853	1136.129009617077	751.558301534790	1364.276009612362	1230.425990514978	658.774533829137	
127	18.731000000000	776.351079448165	996.883056162268	508.632987086388	924.063946303447	1422.047881242993	310.924950518050	1047.280564174200	1352.982302878637	456.394659063280	987.151598876852	1429.374112974826	637.821527481029	939.427366821951	1483.088821628533	461.174419027733	1011.881695158850	928.977693931342	606.491854767894	976.067728739769	949.277519979819	333.948263744971	1008.184110756896	714.782069726830	578.517520129563	904.182204346984	622.025921165023	642.890948130032	960.167150122275	555.007220103606	560.864586134469	937.067502278401	467.023548238935	564.454526419468	1053.142016202785	760.934724620231	364.405571358564	990.963961445434	631.207697662642	299.059200698449	1096.076248932085	573.324560703954	357.779105610326	1115.578536267442	505.242406962721	360.426194808431	1099.482013870151	431.588668181526	352.129366486249	1028.362500560565	302.162293777309	308.280396922707	1111.631619403939	202.880658750736	366.609038272249	892.069844420483	385.926990594349	573.731751135021	803.538612225328	298.375804028485	638.998094764499	821.121134434690	197.625284247893	575.014605643646	661.298371425698	46.510184226939	547.640969680201	833.130963139343	96.084968280498	584.442723894834	743.251624408360	37.537011550676	622.558155530569	951.847232799800	40.516363761384	616.164002257522	1016.657231098483	37.910929690629	413.461900984931	1087.489232023827	36.224619824553	330.226005504491	1168.706805310007	100.661518613876	351.541313899350	1297.193024897964	53.741379241092	319.576854480808	789.340341710742	1089.870915998141	225.874709444706	740.806816883179	835.301439740560	245.440368121634	1150.167139107230	1134.222391124983	749.864784270305	1361.685740053273	1232.480909633201	656.566659926347	
